:FULLY-SPECIFIED
:FORCE-ALL-JOINTS-BE-3DOF
:DEGREES
442
root 1.54096 15.2512 -9.09807 5.38023 4.94782 -13.5911
lfemur -46.4717 16.6707 3.65136
ltibia 62.7457 -0 0
lfoot -25.426 -10.0321 0.0462225
ltoes -12.5284 0 0
rfemur -14.6633 -3.23054 8.93549
rtibia 38.4537 -0 0
rfoot -13.9143 -13.6918 -0.0263549
rtoes -49.8703 0 0
lowerback 5.86564 1.54417 4.55693
upperback 0.988123 2.3656 1.00663
thorax -2.12716 1.15118 -1.69533
lowerneck -7.15807 0.0271752 5.65607
upperneck 0.907796 -0.450363 0.0668254
head 1.49264 -0.192862 -0.957086
lclavicle -4.19436e-014 7.95139e-016 0
lhumerus -39.9627 -28.4593 97.8959
lradius 53.917 -0 0
lwrist 7.78065 0 0
lhand -20.1379 -1.56443 0.0545202
lfingers 7.12502 -0 0
lthumb 6.20633 28.3092 0.0519598
rclavicle -4.19436e-014 7.95139e-016 0
rhumerus -48.6475 -2.66334 -89.399
rradius 66.3943 -0 0
rwrist 12.8556 0 0
rhand -31.507 -29.1253 0.0186283
rfingers 7.12502 -0 0
rthumb -4.77263 -59.0476 0.0177938
443
root 1.54483 15.2732 -9.03811 5.37397 6.74294 -13.7345
lfemur -47.4052 17.6205 2.43977
ltibia 62.8044 -0 0
lfoot -24.737 -9.26423 0.0832185
ltoes -11.0918 0 0
rfemur -13.7505 -3.83344 9.3075
rtibia 37.9802 -0 0
rfoot -13.2653 -14.1568 -0.047445
rtoes -50.0175 0 0
lowerback 5.66176 1.49182 4.75392
upperback 0.939669 2.3005 1.10361
thorax -2.06429 1.11906 -1.69622
lowerneck -7.1568 -0.157894 5.49354
upperneck 0.84259 -0.681633 0.0755749
head 1.4658 -0.309946 -0.932884
lclavicle -4.19436e-014 7.95139e-016 0
lhumerus -40.1643 -28.0471 98.2557
lradius 53.8558 -0 0
lwrist 7.35776 0 0
lhand -20.9712 -2.31308 0.0981615
lfingers 7.12502 -0 0
lthumb 5.40163 27.5703 0.0935504
rclavicle -4.19436e-014 7.95139e-016 0
rhumerus -48.7114 -2.61198 -89.0552
rradius 66.2869 -0 0
rwrist 12.6694 0 0
rhand -31.0944 -28.6082 0.0335339
rfingers 7.12502 -0 0
rthumb -4.37417 -58.5362 0.0320317
444
root 1.54869 15.2953 -8.97814 5.36314 8.53804 -13.8787
lfemur -48.3646 18.5512 1.20551
ltibia 62.863 -0 0
lfoot -24.0476 -8.496 0.110976
ltoes -9.65526 0 0
rfemur -12.841 -4.44216 9.67011
rtibia 37.5068 -0 0
rfoot -12.6161 -14.622 -0.0632661
rtoes -50.1647 0 0
lowerback 5.45771 1.44017 4.9511
upperback 0.891106 2.2355 1.20065
thorax -2.00142 1.08693 -1.69715
lowerneck -7.15501 -0.342958 5.33099
upperneck 0.777344 -0.912892 0.0845881
head 1.43891 -0.427018 -0.908628
lclavicle -4.19436e-014 7.95139e-016 0
lhumerus -40.3622 -27.6338 98.6125
lradius 53.7945 -0 0
lwrist 6.93488 0 0
lhand -21.805 -3.06229 0.130907
lfingers 7.12502 -0 0
lthumb 4.59646 26.8309 0.124757
rclavicle -4.19436e-014 7.95139e-016 0
rhumerus -48.775 -2.56025 -88.7115
rradius 66.1794 -0 0
rwrist 12.4831 0 0
rhand -30.6816 -28.091 0.0447149
rfingers 7.12502 -0 0
rthumb -3.97559 -58.0246 0.0427116
445
root 1.55255 15.3174 -8.91817 5.34767 10.3331 -14.024
lfemur -49.3505 19.4618 -0.0519514
ltibia 62.9217 -0 0
lfoot -23.3579 -7.7275 0.129486
ltoes -8.21871 0 0
rfemur -11.9346 -5.05654 10.0233
rtibia 37.0333 -0 0
rfoot -11.9669 -15.0874 -0.0738153
rtoes -50.3119 0 0
lowerback 5.25349 1.38922 5.14845
upperback 0.842436 2.17057 1.29773
thorax -1.93855 1.05481 -1.69811
lowerneck -7.15269 -0.528017 5.16843
upperneck 0.712058 -1.14414 0.0938653
head 1.41197 -0.544079 -0.884316
lclavicle -4.19436e-014 7.95139e-016 0
lhumerus -40.5565 -27.2194 98.9663
lradius 53.7333 -0 0
lwrist 6.512 0 0
lhand -22.6391 -3.8119 0.152744
lfingers 7.12502 -0 0
lthumb 3.79095 26.0911 0.145567
rclavicle -4.19436e-014 7.95139e-016 0
rhumerus -48.8382 -2.50813 -88.3678
rradius 66.072 -0 0
rwrist 12.2969 0 0
rhand -30.2688 -27.5738 0.0521697
rfingers 7.12502 -0 0
rthumb -3.57694 -57.513 0.0498323
446
root 1.55641 15.3394 -8.85821 5.32744 12.1281 -14.1707
lfemur -50.363 20.3515 -1.33311
ltibia 62.9804 -0 0
lfoot -22.668 -6.95882 0.138743
ltoes -6.78217 0 0
rfemur -11.0311 -5.6764 10.367
rtibia 36.5599 -0 0
rfoot -11.3176 -15.5528 -0.0790904
rtoes -50.4591 0 0
lowerback 5.04909 1.33897 5.34597
upperback 0.793657 2.10572 1.39487
thorax -1.87568 1.02269 -1.6991
lowerneck -7.14984 -0.713069 5.00587
upperneck 0.646728 -1.37538 0.103407
head 1.38498 -0.661128 -0.859948
lclavicle -4.19436e-014 7.95139e-016 0
lhumerus -40.7472 -26.804 99.3173
lradius 53.672 -0 0
lwrist 6.08911 0 0
lhand -23.4735 -4.56175 0.163665
lfingers 7.12502 -0 0
lthumb 2.98524 25.3511 0.155974
rclavicle -4.19436e-014 7.95139e-016 0
rhumerus -48.9012 -2.45564 -88.0243
rradius 65.9646 -0 0
rwrist 12.1106 0 0
rhand -29.856 -27.0565 0.0558973
rfingers 7.12502 -0 0
rthumb -3.17824 -57.0013 0.0533929
447
root 1.56028 15.3615 -8.79824 5.30233 13.9231 -14.3192
lfemur -51.4025 21.2195 -2.6384
ltibia 63.0391 -0 0
lfoot -21.9781 -6.1901 0.138743
ltoes -5.34562 0 0
rfemur -10.1304 -6.30157 10.7013
rtibia 36.0864 -0 0
rfoot -10.6682 -16.0183 -0.0790904
rtoes -50.6064 0 0
lowerback 4.84453 1.28944 5.54368
upperback 0.744771 2.04096 1.49205
thorax -1.81281 0.990565 -1.70013
lowerneck -7.14647 -0.898111 4.84328
upperneck 0.581352 -1.60661 0.113213
head 1.35794 -0.778166 -0.835525
lclavicle -4.19436e-014 7.95139e-016 0
lhumerus -40.9343 -26.3876 99.6654
lradius 53.6108 -0 0
lwrist 5.66623 0 0
lhand -24.3079 -5.31167 0.163665
lfingers 7.12502 -0 0
lthumb 2.17947 24.6111 0.155974
rclavicle -4.19436e-014 7.95139e-016 0
rhumerus -48.9638 -2.40277 -87.6808
rradius 65.8572 -0 0
rwrist 11.9244 0 0
rhand -29.4431 -26.5391 0.0558973
rfingers 7.12502 -0 0
rthumb -2.77952 -56.4897 0.0533929
448
root 1.56414 15.3835 -8.73828 5.27219 15.718 -14.4697
lfemur -52.4692 22.0649 -3.96824
ltibia 63.0978 -0 0
lfoot -21.2882 -5.42142 0.129486
ltoes -3.90908 0 0
rfemur -9.23212 -6.93188 11.026
rtibia 35.613 -0 0
rfoot -10.0189 -16.4837 -0.0738153
rtoes -50.7536 0 0
lowerback 4.63981 1.2406 5.74155
upperback 0.695776 1.97628 1.58929
thorax -1.74995 0.958444 -1.7012
lowerneck -7.14257 -1.08314 4.68068
upperneck 0.51593 -1.83782 0.123285
head 1.33085 -0.895192 -0.811046
lclavicle -4.19436e-014 7.95139e-016 0
lhumerus -41.118 -25.9702 100.011
lradius 53.5495 -0 0
lwrist 5.24334 0 0
lhand -25.1423 -6.06152 0.152744
lfingers 7.12502 -0 0
lthumb 1.37376 23.8711 0.145567
rclavicle -4.19436e-014 7.95139e-016 0
rhumerus -49.0261 -2.34952 -87.3374
rradius 65.7498 -0 0
rwrist 11.7381 0 0
rhand -29.0303 -26.0218 0.0521697
rfingers 7.12502 -0 0
rthumb -2.38082 -55.978 0.0498323
449
root 1.568 15.4056 -8.67831 5.23681 17.5128 -14.6225
lfemur -53.5635 22.8868 -5.32295
ltibia 63.1565 -0 0
lfoot -20.5985 -4.65292 0.110976
ltoes -2.47253 0 0
rfemur -8.33625 -7.56717 11.3412
rtibia 35.1395 -0 0
rfoot -9.36965 -16.9491 -0.0632661
rtoes -50.9008 0 0
lowerback 4.43491 1.19248 5.93959
upperback 0.646674 1.91169 1.68658
thorax -1.68708 0.926325 -1.7023
lowerneck -7.13815 -1.26816 4.51805
upperneck 0.450457 -2.06903 0.133622
head 1.3037 -1.01221 -0.78651
lclavicle -4.19436e-014 7.95139e-016 0
lhumerus -41.2982 -25.5517 100.354
lradius 53.4883 -0 0
lwrist 4.82046 0 0
lhand -25.9764 -6.81113 0.130907
lfingers 7.12502 -0 0
lthumb 0.568249 23.1313 0.124757
rclavicle -4.19436e-014 7.95139e-016 0
rhumerus -49.0881 -2.2959 -86.994
rradius 65.6424 -0 0
rwrist 11.5519 0 0
rhand -28.6175 -25.5046 0.0447149
rfingers 7.12502 -0 0
rthumb -1.98217 -55.4664 0.0427116
450
root 1.57186 15.4277 -8.61834 5.19599 19.3075 -14.7782
lfemur -54.6853 23.6845 -6.70282
ltibia 63.2151 -0 0
lfoot -19.9091 -3.88469 0.0832185
ltoes -1.03598 0 0
rfemur -7.44253 -8.20726 11.6468
rtibia 34.6661 -0 0
rfoot -8.7205 -17.4143 -0.047445
rtoes -51.048 0 0
lowerback 4.22986 1.14506 6.1378
upperback 0.597464 1.84717 1.78392
thorax -1.62421 0.894207 -1.70343
lowerneck -7.1332 -1.45317 4.35539
upperneck 0.384933 -2.30022 0.144225
head 1.27651 -1.12921 -0.761919
lclavicle -4.19436e-014 7.95139e-016 0
lhumerus -41.4751 -25.1324 100.694
lradius 53.427 -0 0
lwrist 4.39758 0 0
lhand -26.8102 -7.56034 0.0981615
lfingers 7.12502 -0 0
lthumb -0.236922 22.3919 0.0935504
rclavicle -4.19436e-014 7.95139e-016 0
rhumerus -49.1498 -2.24192 -86.6507
rradius 65.5349 -0 0
rwrist 11.3656 0 0
rhand -28.2047 -24.9874 0.0335339
rfingers 7.12502 -0 0
rthumb -1.58359 -54.9548 0.0320317
451
root 1.57573 15.4497 -8.55838 5.14948 21.1021 -14.9371
lfemur -55.8347 24.4568 -8.10805
ltibia 63.2738 -0 0
lfoot -19.2201 -3.11686 0.0462225
ltoes 0.400564 -0 0
rfemur -6.55078 -8.85199 11.9428
rtibia 34.1926 -0 0
rfoot -8.07151 -17.8793 -0.0263549
rtoes -51.1952 0 0
lowerback 4.02465 1.09836 6.33618
upperback 0.548146 1.78274 1.88131
thorax -1.56134 0.86209 -1.7046
lowerneck -7.12773 -1.63816 4.19271
upperneck 0.319354 -2.5314 0.155095
head 1.24927 -1.2462 -0.73727
lclavicle -4.19436e-014 7.95139e-016 0
lhumerus -41.6486 -24.712 101.031
lradius 53.3658 -0 0
lwrist 3.97469 0 0
lhand -27.6435 -8.30899 0.0545202
lfingers 7.12502 -0 0
lthumb -1.04162 21.653 0.0519598
rclavicle -4.19436e-014 7.95139e-016 0
rhumerus -49.2111 -2.18756 -86.3075
rradius 65.4275 -0 0
rwrist 11.1794 0 0
rhand -27.7921 -24.4703 0.0186283
rfingers 7.12502 -0 0
rthumb -1.18513 -54.4434 0.0177938
452
root 1.57959 15.4718 -8.49841 5.09697 22.8966 -15.0995
lfemur -57.0118 25.2029 -9.53875
ltibia 63.3325 0 0
lfoot -18.5317 -2.34952 0
ltoes 1.83711 0 0
rfemur -5.66079 -9.50119 12.2291
rtibia 33.7192 0 0
rfoot -7.4227 -18.344 0
rtoes -51.3424 0 0
lowerback 3.81928 1.05236 6.53472
upperback 0.49872 1.7184 1.97876
thorax -1.49847 0.829975 -1.70581
lowerneck -7.12173 -1.82314 4.02999
upperneck 0.25372 -2.76257 0.166231
head 1.22197 -1.36318 -0.712565
lclavicle -4.19436e-014 7.95139e-016 0
lhumerus -41.8188 -24.2908 101.366
lradius 53.3045 0 0
lwrist 3.55181 0 0
lhand -28.4761 -9.05693 0
lfingers 7.12502 0 0
lthumb -1.84572 20.9148 0
rclavicle -4.19436e-014 7.95139e-016 0
rhumerus -49.2721 -2.13284 -85.9644
rradius 65.3201 0 0
rwrist 10.9931 0 0
rhand -27.3797 -23.9533 0
rfingers 7.12502 0 0
rthumb -0.786809 -773.932 0
453
root 1.66836 15.5175 -8.42829 4.97672 24.7578 -14.9209
lfemur -56.6183 24.4937 -10.3917
ltibia 62.7271 -0 0
lfoot -18.6956 -2.36995 0.000292228
ltoes 2.81045 -0 0
rfemur -5.32526 -8.87427 12.3287
rtibia 34.1795 -0 0
rfoot -4.50248 -18.0009 0.0894107
rtoes -51.0098 0 0
lowerback 3.50123 0.975702 6.43449
upperback 0.379625 1.59148 2.00473
thorax -1.45323 0.767367 -1.61588
lowerneck -7.21669 -2.05435 3.90031
upperneck 0.48816 -3.06818 0.206998
head 1.31318 -1.5121 -0.695607
lclavicle -5.76476e-014 -2.14687e-014 0
lhumerus -42.2669 -24.267 101.735
lradius 53.1553 -0 0
lwrist 3.3325 0 0
lhand -28.0705 -9.39976 -0.0121433
lfingers 7.12502 -0 0
lthumb -1.45399 20.5714 -0.0117475
rclavicle -5.76476e-014 -2.14687e-014 0
rhumerus -49.7957 -2.27088 -85.4751
rradius 65.0239 -0 0
rwrist 10.9482 0 0
rhand -27.747 -24.4947 0.0173699
rfingers 7.12502 -0 0
rthumb -1.14151 -54.4688 0.0166321
